<?xml version="1.0" encoding="utf-8"?>
<!-- Generator: Adobe Illustrator 24.0.0, SVG Export Plug-In . SVG Version: 6.00 Build 0)  -->
<svg version="1.1" id="Layer_1" xmlns="http://www.w3.org/2000/svg" xmlns:xlink="http://www.w3.org/1999/xlink" x="0px" y="0px"
	 viewBox="0 0 792 612" style="enable-background:new 0 0 792 612;" xml:space="preserve">
<g>
	<g>
		<g>
			<g>
				<g>
					<g>
						<path d="M806.2,624.3c0.4-0.7,0.9-1.3,1.3-2c0.9-1.3,1-2.5-0.3-3.3c-1.4-0.9-1.5-2-1.5-3.2c0-1.5,0.3-3,0.4-4.5
							c0.4,0.5,0.9,1,1.6,1.8c0-2,0.3-3.7-1.4-5.1c-0.1,0.5-0.1,1-0.2,1.4c-0.6-0.9-0.7-1.8,0.2-2.6c0.7-0.6,0.5-0.9,0.1-1.6
							c-1.2-2-1.1-4.6,0.4-6.4c0.9-1.1,0.3-2.3,0.7-3.4c0-0.1-0.4-0.5-0.7-0.5c-1,0.1-1.1-0.4-1.1-1.3c0-1.9-0.1-3.8-0.1-5.7
							c0-0.6,0.2-1.2,0.3-1.9c0.5,0.7,0.8,1.2,1.1,1.7c-1.4,1.5-0.9,2.9,0.3,4.5c0.2-1.3,0.4-2.4,0.5-3.4c0.1-0.6-0.1-1.1-0.9-1.1
							c0.7-1.4,1.1-2.8,0.5-4.3c-0.1-0.3-0.3-0.7-0.6-0.9c-1.5-1.1-1.5-1-0.9-3l0,0c0.8-0.3,1.3-1,1.3-1.8c0.1-2,0-4,0.1-5.9
							c0-1.1-0.2-1.9-1.4-2.1c-0.1,0-0.1-0.4-0.1-0.7c0.3-0.2,0.8-0.4,0.8-0.4c-0.6-1.6,1.4-3.2,0.1-4.9c0-3.4,0.1-6.7,0.1-10.1
							c0-1.8,0-3.6,0-5.4c-0.3,0-0.5,0-0.8,0c-0.2,6.9,0,13.9-0.1,20.9c-0.2-0.9-0.5-1.9-0.5-2.8c0-6.6,0-13.2,0-19.9
							c0-1.1-0.2-2.3,1-3c0.2-0.1,0.3-0.5,0.3-0.8c0.1-1.5,0.2-3,0.3-4.6c-1.6,1.1-0.9,2.7-1.6,4c0-1.6,0-3.2,0-4.8
							c0-4.7,0-9.4,0-14.1c0-1.3,0.3-2.7,0.4-4c0.3-0.2,0.7-0.3,1-0.5c0.1-0.5,0.5-1.2,0.3-1.6c-0.7-1.6,0-3.1,0-4.7
							c0-1.7-0.3-3.5-0.5-5.2c0-0.5-0.4-1.1-0.2-1.4c1.2-2,0-4,0.4-6.2c-1.4,0.8-0.7,1.9-1.3,2.9c0-2.3,0-4.3,0-6.4c0,0,0.1,0,0.1,0
							c0.2,0.9,0.3,1.7,0.5,2.6c0.1,0,0.3,0,0.4,0c0.2-1.2,0.5-2.5,0.5-3.7c-0.1-1.6-0.2-3.1,0.1-4.7c0-0.2-0.5-0.7-0.6-0.6
							c-0.9,0.4-1.2-0.2-1.2-0.9c0-0.9,0.2-1.9,0.2-2.8c0-1,1.8,0.1,1.5-1.4c-0.2-0.6,0.1-1.4,0.1-2.1c-0.1-0.9,0-2-0.6-2.7
							c-1.2-1.5-0.7-3.1,0-4.2c1.1-2,0.6-3.7-0.1-5.5c-0.2-0.5-0.6-1-0.7-1.5c-0.1-0.3,0.3-0.9,0.4-0.9c1.3,0.5,0.8-0.3,0.8-1
							c0-3.8,0.3-7.6,0.3-11.4c0-0.9-0.3-1.9-0.4-2.8c0,0,0,0,0,0c-0.2-0.4-0.4-0.8-0.7-1.1c-0.5-0.4-0.6-0.9-0.1-1.1
							c1.1-0.5,0.9-1.5,0.8-2.3c-0.3-1.9-0.2-3.8-0.2-5.7c0-0.4-0.1-1-0.4-1.3c-1.3-1.6-0.8-3.2-0.1-4.7c0.3-0.7,0.6-1.2,0-1.9
							c-0.5-0.5-0.7-1,0.1-1.5c0.3-0.2,0.4-0.6,0.5-1c0.1-0.2-0.1-0.5-0.2-0.6c-0.9-0.7-0.9-0.7-0.8-1.4c0.1-1.1,0.4-2.2-0.2-3.3
							c-0.2-0.3,0-0.8-0.2-1.2c-0.7-1.1,2.2-1.9,0.3-3.1c-0.1-1.2-0.2-2.5-0.3-3.7c0-0.3,0-0.8,0.2-0.9c2.2-0.9,0.9-2.5,0.5-3.6
							c-0.6-1.6-0.8-3.1-0.8-4.7c0.1-3.5,0.2-7,0.2-10.4c0-0.8,0.3-1.8-0.8-2.5c-0.4-0.2-0.4-1.4-0.5-2.2c0-0.1,0.1-0.3,0.3-0.3
							c1.1-0.9,1.1-0.9,1-1.7c-0.1-0.8-0.1-1.6-0.1-2.4c0.1-3.5,0.2-6.9,0.2-10.4c0-4.2-0.1-8.4-0.1-12.7c0-2.6,0.2-5.2,0.3-7.7
							c0-0.4,0.1-0.8-0.1-1.2c-0.5-1.1-0.3-2,0.4-2.9c0.7-0.9,0.6-1.7,0-2.6c-1.3-2-0.9-4.3-0.4-6.5c0.2-0.6,0.5-1.1,0-1.7
							c-0.1-0.2-0.2-0.5-0.2-0.7c0.1-1.3,0.6-2.7,0.4-4c-0.3-1.3-0.5-2.4-0.4-3.7c0.2-2,0-4.1,0-6.2c0-9.1-0.1-18.2-0.1-27.3
							c0-1.6,0.4-3.3,0.6-4.9c0-0.3-0.1-0.6-0.1-0.9c-0.1-0.5-0.5-1.1-0.4-1.6c0.3-3.9-0.3-7.9,0.6-11.8c0-0.2,0.1-0.5,0-0.7
							c-1.1-1.6-0.5-3.4-0.5-5.1c0-0.3,0.3-0.6,0.5-0.9c0.1,0.3,0.3,0.5,0.4,0.8c0.1,0.3,0.1,0.6,0.5,0.8c-0.1-0.9-0.1-1.9-0.4-2.7
							c-0.8-1.8-1.2-3.8-1.3-5.8c-0.1,0.5-0.2,1-0.3,1.4c-0.1,0-0.2,0-0.3,0c-0.2-6.9-0.3-13.9-0.5-21.2c1.1,0.8,0.9,1.6,0.9,2.3
							c0,4.3,0,8.6,0,13c0,0.6,0,1.1,0.1,1.7c0,0.2,0.4,0.6,0.5,0.6c0.4-0.1,0.7-0.4,1-0.6c0,0,0-0.2,0-0.2
							c-2.1-0.9-0.4-2.6-0.7-3.9c-0.3-1.4-0.1-2.8-0.1-4.2c-0.1-2-0.3-4-0.3-6c-0.1-3.1,0.2-6.2,0.1-9.3c-0.1-4.5,0.3-9.1,0.5-13.6
							c0-0.5-0.2-0.9-0.2-1.4c0-0.9-0.1-1.8,0-2.6c0.6-3,0.4-6,0.2-8.9c-0.1-1.9-0.2-3.7,0.1-5.6c0.3-1.7,0.1-3.5,0.1-5.2
							c0-0.2-0.4-0.4-0.6-0.6c-0.1,0-0.4,0.3-0.5,0.4c-0.1,0.8-0.2,1.6-0.2,2.4c0,10.6,0,21.1,0,31.7c0,0.9-0.1,1.8-0.1,2.7
							c-0.2,0-0.3,0-0.5,0c-0.1-0.4-0.3-0.8-0.3-1.2c-0.1-0.8-0.2-1.6-0.1-2.4c0.6-4.8,0-9.6,0.1-14.3c0.1-4.7-0.1-9.4-0.1-14.2
							c0-8.1,0.1-16.2,0.1-24.2c0-0.6,0.1-1.2,0.6-1.9c0.1,0.5,0.3,1.1,0.3,1.6c0,3.3,0,6.6,0,9.8c0,1.1,0.4,2.2,0.5,3.3
							c0,0.3-0.1,0.7-0.1,1c-0.1,1-0.2,2-0.3,3c0,0.2,0.3,0.5,0.5,0.7c0.2-0.2,0.6-0.4,0.6-0.6c0.1-1.5,0.2-3,0-4.5
							c-0.1-1.3-0.2-2.5,0-3.8c0.2-1.6,0-3.3-0.1-4.9c-0.3-4.3-0.2-8.6-0.4-13c-0.1-2-0.2-4-0.3-6c0-0.8,0.1-1.6,0.1-2.4
							c0.1-1.7,0.3-3.3,0.3-5c0-3.6,0.2-7.2,0-10.8c-0.3-4.3,0.1-8.6,0.1-12.9c0-2.6,0-5.3,0-7.9c-0.1-2.9-0.3-5.9-0.4-8.8
							c0-1.9,0.2-3.8,0.2-5.7c0-4.2-0.2-8.5-0.1-12.7c0.1-15.3,0.2-30.7,0.3-46c0-6.9,0-13.8,0-20.6c0-4.6-0.1-9.3-0.1-13.9
							c0-2.8-0.1-5.6-0.1-8.4c0-1.3-0.1-2.7-0.2-4c1.3,0,2.6,0,3.8,0c0,1.3,0,2.6,0,3.8c0,202.2,0,404.3,0,606.5c0,0.5,0,1,0,1.4
							c0.1,0.6-0.1,0.8-0.7,0.7C807.9,624.2,807,624.3,806.2,624.3z M807.5,519.9c-0.6,0.5-1,0.7-1,1c-0.1,1.5-0.2,2.9-0.3,4.4
							c0,0.1,0.3,0.3,0.3,0.3c0.2-0.1,0.5-0.3,0.5-0.4C807.2,523.6,807.3,522,807.5,519.9z M806.1,529.4c0.2,0.2,0.5,0.6,0.8,1
							c0.1-0.4,0.3-0.8,0.3-1.3c0.1-0.3,0-0.6,0-0.9c0-0.3-0.1-0.7-0.2-1c-0.3,0.3-0.6,0.5-0.7,0.8
							C806.2,528.3,806.2,528.7,806.1,529.4z M807.5,533.6c-1.2,0.6-1.3,1.4-1.2,2.3c0,0.2,0.2,0.4,0.4,0.5c0.1,0,0.5-0.2,0.5-0.4
							C807.3,535.3,807.4,534.6,807.5,533.6z"/>
						<path d="M17.5,622.8c23.8,0,47.6,0,71.5,0c2.4,0,4.8,0.3,7.2,0.3c2.2,0,4.5-0.2,6.7-0.2c3.8,0,7.7,0.2,11.5,0.2
							c44.9,0,89.9,0,134.8,0.1c5.4,0,10.8,0.2,16.3,0.4c2.7,0.1,5.4,0.1,8.1,0.1c19.7,0,39.5,0,59.2,0c1.2,0,2.3,0.3,3.5,0.5
							c-91.5,0-183,0-274.6,0c-2.7-0.6-5.4-0.6-8.2,0c-11.6,0-23.2,0-34.8,0.1C17.2,624.3,17.5,623.6,17.5,622.8z"/>
						<path d="M337.2,624.3c0.8-0.2,1.7-0.5,2.5-0.5c8.2,0,16.5,0,24.7,0c0.8,0,1.7,0.3,2.5,0.5C357,624.3,347.1,624.3,337.2,624.3z
							"/>
						<path d="M367.9,624.3c0.7-0.2,1.4-0.5,2.1-0.5c3.4-0.1,6.9-0.1,10.3,0c0.7,0,1.4,0.3,2.1,0.5
							C377.5,624.3,372.7,624.3,367.9,624.3z"/>
						<path d="M211.5,380.4c0.2,1.8,0.5,3.7-1,5.2c-0.2,0.2,0,0.6,0,0.9c0,0.2,0.1,0.6,0.1,0.6c-2.1,1-0.8,3-1.3,4.5
							c-0.2,0.5,0.1,1.1-0.6,1.6c-0.3,0.2-0.3,1-0.3,1.5c0,0.4,0.1,0.8,0.1,1.2c0.1,0.6,0.2,1.2,0.3,1.8c0.8-0.1,1.6-0.1,2.3-0.4
							c1.7-0.9,2.5-1.1,4.2-0.9c1.1,0.1,2.3,0.8,3.4-0.1c0.1-0.1,0.3,0,0.4,0c0,1.3,0.7,1.2,1.5,0.7c0.7-0.4,1.3-0.8,2-1.2
							c0.5-0.3,1.1-0.7,1.6-0.8c2.4-0.1,4.7-0.1,7.1-0.1c0.4,0,0.9,0.1,1.1,0.4c0.8,1.3,2,1,3.2,1c0.8,0,1.7,0.1,2.5,0.3
							c1.5,0.5,2.9,1.5,4.4,1.6c2.6,0.3,3,2.3,3.2,4c0.1,1.1,0.3,1.9,0.9,2.8c0.8,1.1,0.8,2.1-0.2,3c-0.2,0.2-0.5,0.5-0.6,0.8
							c-1.4,3.3-4.1,5.4-6.9,7.4c-0.3,0.2-0.6,0.4-0.7,0.6c-0.8,1.7-2.4,2.2-4,2.8c-2.2,0.9-4.2,2.3-6.4,3.2
							c-1.8,0.7-3.8,1.4-5.7,1.5c-3.3,0.1-6.7-0.3-10-0.4c-0.7,0-1.4,0.1-2.1,0.3c-1.4,0.4-2.7,1-4.1,1.2c-1,0.1-1.3,0.5-1.3,1.3
							c0,0.9-0.1,1.5-1,2.1c-0.9,0.6-0.9,2.8-0.2,3.8c0.2,0.3,0.9,0.7,1.1,0.5c0.5-0.2,1.2-0.6,0.5-1.4c-0.2-0.2-0.1-0.7-0.3-1.7
							c1.5,1.8,2.6,1.3,4.1,0.8c3.8-1.4,7.8-2.4,11.9-1.4c0.6,0.1,1.3,0.2,1.9,0.2c2.9-0.1,5.7,0.8,8.4,1.6c1.1,0.3,2.3,0.3,3.5,0.3
							c1,0.1,2.1-0.1,3.1,0.1c0.9,0.1,1.9,0.3,2,1.6c0,0.4,0.6,0.7,0.9,1.1c1.7,1.9,2.8,4.1,3.5,6.5c0.1,0.4,0.1,0.9,0,1.4
							c-0.1,2-0.5,3.9,0.4,5.9c0.2,0.4-0.2,1-0.4,1.5c-0.5,1.1-1.3,2.1-1.7,3.2c-0.7,2.3-2.4,3.3-4.5,3.9c-4.3,1.3-8.6,3-13,3.9
							c-1,0.2-2,0.3-3.1,0.3c-0.8,0.1-1.7,0-2.6,0.2c1,1,2.4,1,3.7,1.6c-0.3,0.1-0.6,0.3-0.9,0.2c-1.5-0.4-3.1-0.7-4.6-1.3
							c-1.5-0.6-3.4-0.1-4.7-1.3c-1.4,0.8-2.9,0.1-4.3,0.2c-0.2,0-0.5,0.4-0.5,0.7c0,1.2-0.7,2.1-1.1,3.1c-0.6,1.3-0.9,2.9-0.9,4.3
							c0.1,4.5,1.4,8.7,2.6,13c0.8,2.7,2.2,5.3,1.7,8.3c-0.1,0.5-0.2,0.9-0.3,1.5c0.6,0,1.4-0.2,1.9,0.2c0.4,0.3,0.6,1.1,0.8,1.7
							c0.5,1.5,0.8,3.1,2.9,3.2c0.3,0,0.6,0.5,0.8,0.8c1.2,1.8,2.4,3.6,3.6,5.4c0.4,0.5,0.7,1.1,1.3,1.4c1.8,0.9,2.8,2.6,4.1,3.9
							c0.9,0.9,1.6,1.9,3.2,1.8c0.5-0.1,1.1,0.5,1.8,0.6c-0.7-1.2-1.7-2.2-2.8-2.9c-1.8-1.1-1.9-3-2.6-4.6c0.2-0.1,0.3-0.2,0.5-0.3
							c0.2,0.3,0.5,0.5,0.7,0.9c1.1,2.5,3.4,4,5.2,5.9c0.2,0.2,0.5,0.4,0.6,0.4c2.4-0.9,3.6,1.3,5.1,2.3c4,2.7,8.2,5,12.6,6.9
							c1.5,0.6,3.2,1,4.8,1.4c0.5,0.2,1.1,0.2,1.6,0.5c3,1.6,6.3,1.6,9.6,1.5c5.1-0.1,10.2,0,15.4,0c0.8,0,1.5,0.1,2.7,0.2
							c-1.1,1-2,0.8-2.8,0.8c-4.3,0-8.6,0-13,0c-1,0-2,0-3,0.3c3.7,0.6,7.3,1.8,11.1,0.7c1.2-0.3,2.7,0.1,4.1,0.2
							c0.3,0,0.7,0.2,0.9,0.1c2.5-1,5.1,0,7.5,0.4c3,0.4,6,0.7,9,0.8c1,0,2.2,0.5,3.1,0.2c1.1-0.4,1.9,0.9,2.9,0
							c0.1-0.1,0.5,0.1,0.5,0.2c0.4,1.6,1.4,0.8,2.2,0.5c0.3-0.1,0.5-0.4,0.7-0.6c0.6-0.4,1.2-0.7,0.9,0.6c1,0.3,2,0.6,3,0.9
							c0.1-0.1,0.1-0.2,0.2-0.4c-0.3-0.4-0.6-0.8-1.2-1.5c1.4-0.1,2.6-0.2,3.7-0.2c0.2,0,0.5,0.4,0.6,0.7c0.1,0.3,0,0.7,0,1
							c0.4-0.1,0.7-0.2,1.1-0.4c0.2-0.1,0.4-0.4,0.5-0.4c2.3,0,4.5,0,6.8,0.2c-1.8,1.1-3.9,0.6-6.3,1c1.5,0.6,2.8,0.9,3.9,0.4
							c1.4-0.6,3.1,0,4.2-1.4c1,0.2,2,0.4,2.9,0.8c1,0.4,2,0.9,3,1.4c1.8,0.9,3.6,1.7,5.3,2.8c1.8,1.2,2.1,3.4,2.2,5.4
							c0.1,2.3-0.1,4.5-1.5,6.6c-0.9,1.4-1.1,3.3-1.5,5c-0.1,0.3,0,0.6-0.1,1c-0.4,4.3-1.6,5.6-5.8,5.7c-2.5,0.1-5.1-0.5-7.3-1.9
							c-0.2-0.1-0.4-0.5-0.5-0.7c0.3-0.1,0.7-0.3,1-0.2c1.5,0.4,2.9,0.9,4.3,1.3c0.5,0.1,1.1,0.2,1.7,0.2c3.3,0.1,4.5-0.8,5.2-4
							c0.4-1.6,0.5-3.3,0.7-5c0-0.3-0.1-0.9-0.4-1c-1.2-0.8-0.9-1.8-0.3-2.7c0.5-0.8,1.1-1.5,1.8-2.1c1.6-1.4,1.7-4,0-5.4
							c-0.2-0.1-0.7,0-0.9,0.2c-0.2,0.2-0.3,0.5-0.7,1.2c-0.3-1-0.4-1.7-0.6-2.3c-0.3-0.8-0.8-1.2-1.6-1.1c-0.7,0.1-1.3,0.3-1.6,1.2
							c-0.3,1.1-0.8,2.3-1.4,3.3c-0.5,1,0.2,2.2-0.9,3c-0.2,0.2-0.3,0.3-0.5,0.5c-1.1,0-2.2,0.1-2.9-0.9l0.1-0.1
							c0.6-0.1,1.2-0.3,1.8-0.4c-0.4-0.5-0.6-1-1.1-1.5c-0.5-0.5-1-1.3-2-0.9c-0.1,0.1-0.5-0.2-0.5-0.2c0.2-0.8,0.3-1.7,0.7-2.4
							c0.2-0.5,0.8-0.5,1.1,0.2c0.1,0.3,0.2,0.6,0.4,0.9c0.6,0.7,2,1,2.9,0.6c1-0.5,1.7-1.9,1.5-3c-0.2-1.1-1.1-0.9-1.8-1.2
							c-0.4-0.1-0.8-0.2-1.2-0.2c-3.3-0.3-6.7-0.5-10-0.8c-0.6,0-1.3-0.1-1.9,0c-0.9,0.1-1.1,0.5-0.6,1.3c0.2,0.2,0.3,0.5,0.6,0.8
							c-0.8,0.1-1.5,0.1-2.3,0.1c0.2,0.4,0.3,0.6,0.5,0.8c0.4,0.7,0.7,1.3,1.1,2c-0.8,0.3-1.6,0.6-2.4,0.8c-0.8,0.1-1.1-0.5-0.7-1
							c1.1-1.4,0.1-2.3-0.8-3c-0.7-0.5-1.7-0.7-2.6-0.9c-3.1-0.7-6.2-1.2-9.3-1.9c-1.6-0.3-3.1-0.9-4.7-0.4
							c-0.9,0.3-1.9,0.3-2.8,0.5c0.4,0.9,0.8,1.9,1,2.8c0.1,0.5,0.3,1.5,0,1.7c-0.5,0.4-1.2,0.5-2,0c-1.3-0.7-2.8-1.2-4.1-1.7
							c0.3-1,1-0.9,1.7-0.6c0.7,0.3,1.5,0.6,2.2,0.8c0.2,0,0.7-0.4,0.7-0.6c0-1.2-2.2-3.1-3.3-2.9c-1.1,0.2-2-0.1-3-0.3
							c-2.4-0.6-4.8-1.1-7.3-1.4c-2.9-0.3-5.9-0.3-8.8-0.4c-0.1,0-0.2,0.2-0.5,0.6c2,0.7,3.9,1.4,6,2.1c-0.4,0.3-0.6,0.4-0.7,0.4
							c-2.7-0.7-5.4-1.4-8-2.3c-2.3-0.7-4.4-1.8-6.7-2.6c-1.6-0.6-3.3-1.1-5-1.5c-3.1-0.7-6-1.6-8.7-3.3c-2.8-1.8-5.6-3.7-8.5-5.4
							c-0.8-0.5-1.7-0.8-2.6-1c-0.7-0.2-1.3,0-0.9,1.1c0.1,0.3-0.2,0.8-0.3,1.2c-0.4-0.1-0.9-0.2-1.2-0.4c-0.2-0.2-0.3-0.6-0.5-0.9
							c-0.3,0.9-0.1,1.6-0.1,2.4c0,0.9-0.3,0.9-1.3,0.6c-0.4-0.1-1.1,0.2-1.3,0.6c-0.6,1-0.9,2-1.4,3c-0.2,0.4-0.5,0.8-0.8,1.2
							c-0.2-0.1-0.3-0.2-0.5-0.2c0.3-0.9,0.7-1.9,1-2.8c0.3-0.7,0.7-1.3,0.9-1.9c0.3-0.9-1.3-2.5-1.7-2c-0.8,1-1.8,0.7-2.7,1.1
							c-0.1,0.1-0.2,0.2-0.3,0.3c1.4,1-0.1,0.7-0.4,1.1c-0.4,0.4-0.8,1.1-0.8,1.6c0.2,2.1,0.6,4.2,0.9,6.3l0,0
							c-1-0.1-1.7-0.6-1.9-1.6c-0.2-1.5-0.6-3-0.4-4.5c0.3-1.9,1.2-3.8,1.8-5.7c0.2-0.5,0.5-1,0.5-1.5c-0.1-0.7,0.2-0.8,0.8-0.9
							c0.3-0.1,0.7-0.6,0.7-0.7c-0.7-0.9-1.3-1.8-2.2-2.5c-0.4-0.3-1.3,0.1-2,0.3c-0.4,0.1-0.7,0.5-1.1,0.5
							c-0.3,0.1-0.8-0.2-0.8-0.3c-0.2-1.8-1.8-2.5-2.7-3.8c-1-1.4-2.3-2.6-3.3-3.9c-0.2-0.2-0.1-0.7-0.1-1c0.4,0.1,0.8,0.1,1,0.3
							c0.5,0.6,0.9,1.4,1.5,1.9c0.6,0.4,1.6,0.3,2.1,0.8c0.4,0.5-0.1,1.5,0.7,2.1c0.8,0.6,1.4,1.3,2.2,1.9c0.3,0.2,0.8,0.1,1.2,0.2
							c-0.1-0.5,0.1-1.2-0.2-1.6c-1-1.2-2.1-2.2-3.2-3.3c-1.1-1.1-2.3-2.2-3.3-3.4c-1.3-1.4-2.5-2.9-3.7-4.3
							c-0.2-0.2-0.5-0.6-0.4-0.8c0.6-1.6-0.7-2.7-1.1-4c-0.7-2-1.1-4.1-2.1-6c-0.4-0.8-0.9-1.5-1.2-2.3c-0.4-0.9-0.8-0.9-1.3-0.1
							c-0.1,0.2-0.4,0.2-0.6,0.3c0-0.3-0.2-0.6-0.1-0.8c0.2-0.8,0.6-1.5,0.6-2.2c0-1.2,0.5-2.5-0.7-3.5c-0.5-0.5-0.5-1.5-0.6-2.3
							c-0.1-0.6-1-1.6,0.5-1.8c-0.2-0.8-0.2-1.8-0.7-2.4c-0.9-1-0.8-2-0.9-3.1c-0.1-1.1-0.2-2.2-0.4-3.3c-0.7-5.3-0.8-10.6-0.1-16
							c0.2-1.7,0.6-3.4,0-5.2c-0.2-0.5,0.3-1.3,0.5-2l0,0c0.1-1.6,0.3-3.2,0.4-4.7c0-0.2,0-0.4-0.1-0.5c-0.4-0.5-1.2-1-1.1-1.4
							c0-0.6,1-1.2,1-1.8c0.1-1.3,0.2-2.8-0.5-3.7c-0.7-1-0.7-1.8-0.4-2.6c0.6-1.3,0.6-2.6,0.7-3.9c0.2-2.5-0.3-5.1,0.6-7.3
							c1-2.6-0.2-5.5,1.8-7.7c0.3-0.3,0.2-0.9,0.2-1.4c0.1-3.2,1.1-6.2,2.2-9.1c0.1-0.3,0.3-0.6,0.3-0.9c-0.2-2.4,1-4.4,1.7-6.6
							c1.3-3.8,2.4-7.6,3.8-11.3c0.7-1.9,1.3-3.8,2.7-5.3c0.3-0.3,0.6-0.8,0.6-1.3c0.2-2.1,1.4-3.9,2.5-5.6c0.6-1.1,1.3-2.2,1.8-3.4
							c0.2-0.5,0.3-1.2,0.2-1.6c-0.4-1.2,0-2,0.6-2.9c0.6-0.9,0.9-1.8,1.4-2.7c0.5-0.9,1.1-1.7,1.6-2.6c0.2-0.3,0.6-0.6,0.5-0.7
							c-0.8-1.7,0.7-2.2,1.4-3.1c1-1.3,2.5-2.4,2.9-3.9c0.4-1.3,1.1-2.3,1.5-3.5c0.9-2.5,1.8-4.9,4.1-6.5c0.4-0.3,0.5-0.8,0.8-1.2
							c1-1.6,2-3.3,3-4.9c0.4-0.6,1.5-0.9,0.5-1.9c0,0,0.1-0.3,0.2-0.4c1.4-0.6,1.6-2.5,3.3-3c0.5-0.1,0.9-1.2,1.1-2
							c0.3-1.5,0.2-1.5,1.8-1.2c0.1,0,0.3,0,0.7-0.1c-0.4-0.4-0.7-0.7-1-1c-0.3-0.3-1.2,0.2-1-0.9c0.2-1,0.4-1.9,1.4-2.3
							c1.2-0.4,2-1.1,2.5-2.3c0.1-0.3,0.2-0.6,0.4-0.8c0.2-0.1,0.7-0.1,0.7,0c0.7,1.4,1.1,2.8,0.9,4.4c0,0.2-0.1,0.4-0.2,0.4
							c-1.6,1.1-2.6,2.8-3.4,4.5c-0.7,1.5-2.2,2.6-2.5,4.3c-0.1,0.4-0.4,1-0.8,1.1c-1.6,0.5-1.9,1.8-2.2,3.1c-0.2,0.9-0.8,1.4-1.5,2
							c-1.6,1.3-3.1,2.7-3.6,4.9c-0.1,0.4-0.3,0.8-0.5,1c-0.7,0.6-1.7,1-2.2,1.7c-0.5,0.7-0.3,1.7-0.7,2.5c-1.2,2.3-2.5,4.4-3.7,6.6
							c0,0.1-0.1,0.2-0.1,0.2c-0.4,0.3-0.9,0.6-1.3,1c-0.6,0.5,0.9,0.2,0.4,1.1c-1.6,2.9-2.6,6-4.2,8.9c-0.9,1.7-1,3.4-1.5,5.1
							c-0.3,1.2-0.4,2.7-1.8,3.6c-0.6,0.4-0.9,1.5-1.1,2.3c-0.8,3.7-1.4,7.5-2.1,11.3c-0.1,0.5-0.1,1-0.4,1.4
							c-0.2,0.4-0.7,0.6-1.1,0.8c-0.2-0.3-0.5-0.6-0.6-0.9c-0.2-0.6-0.4-1.2-0.5-1.8c0.2-1.3,0.4-2.7,0.5-4c0-0.3-0.3-0.7-0.4-1
							c-0.2,0.3-0.5,0.5-0.6,0.8c-0.2,0.6-0.5,1.3-0.6,2c-0.3,1.9-0.6,3.8-0.9,5.7c0.1,0,0.2,0,0.3,0
							C210.7,382.4,211.1,381.4,211.5,380.4z M202.9,417.4c0.6-0.9,0.9-2.3,1.6-2.6c1.4-0.6,1-1.4,0.9-2.3c-0.2-1.6-0.7-3.2-0.5-4.7
							c0.3-2.3,1.1-4.6,1.6-6.9c0.2-0.8,0.2-1.6,0.3-2.5c-0.8,1.5-0.8,1.5-2.6,1.1c1.3,1.2,1.1,2.4,0.7,3.7c-0.9,3-1.4,6-1,9.1
							c0.1,0.6-0.3,1.5-0.7,1.9C201.9,415.2,202.1,416.1,202.9,417.4z M201,426.8c1.2-2.3,1.4-4.7,1.3-7.2c-0.5,0.6-1,1.3-1.1,2.1
							C201.1,423.4,201.1,425.1,201,426.8z M204.4,436.2c-0.5,1.5-1.1,3.1-1.7,4.8C204.7,439.7,204.8,438,204.4,436.2z"/>
						<path d="M435.5,493.2c0.1-0.8,0-1.6,0.2-2.3c0.9-3.2,2.1-6.4,2.9-9.6c0.8-3.6,1.1-7.4,0.5-11.1c-0.3-2-0.8-3.9-0.9-5.9
							c-0.1-1.6,0.1-3.2,0.2-4.8c0-0.6,0-1.3,0-1.9c0-0.2-0.3-0.4-0.4-0.5c-0.2,0.2-0.4,0.4-0.5,0.6c-0.2,0.5-0.6,0.6-0.7,0
							c-0.2-1-0.2-2-0.3-3c0-0.3-0.3-0.6-0.5-0.9c-0.3,0.3-0.6,0.5-0.8,0.8c-0.1,0.1,0,0.3-0.1,0.5c-0.3,2.1-0.3,2.1-2.2,0.9
							c-0.2-0.1-0.5-0.1-0.8-0.1c-0.5,0.1-1,0.5-1.3,0.4c-2.5-0.6-4.9-0.2-7.3,0c-2.1,0.2-4.2,0.4-6.3,0.6c-0.3,0-0.7,0-0.8-0.1
							c-0.6-1.3-1.8-1-2.8-0.9c-3.4,0.3-6.6-0.9-9.9-1.4c-1-0.2-1.7-1-2.1-2.1c-0.3-0.9-0.9-1.7-1.4-2.4c-0.9-1.3-2.1-2.4-2.9-3.8
							c-1.2-2.1-0.9-4.4,0.2-6.4c0.5-1,1.2-2.3,2.6-2.6c0.4-0.1,0.9-0.7,0.9-1c0.1-2.1,2-2.3,3.3-3c1.1-0.6,2.4-0.9,3.6-1.1
							c0.7-0.1,1.9,0.6,2.2,0.3c0.6-0.6,1.2-1.1,2.1-1.4c2.4-0.8,4.9-0.8,7.3-0.7c1.6,0.1,3.2-0.1,4.5-1c0.6-0.4,1-0.4,1.5,0.1
							c0.9,1,1.6,0.6,2.3-0.3c1-1.1,1.6-1.2,2.4-0.4c0.3,0.3,0.4,0.9,0.5,1.4c0.1,0.7,0.3,1.4,1.1,1.2c0.7-0.2,2-0.7,1.6-1.4
							c-0.7-1,0.1-1.9-0.2-2.8c-0.8-2.2-0.6-4.5-0.6-6.8c0-0.9-0.8-1.8-1.3-2.6c-0.1-0.1-0.8-0.1-1.1,0.1c-0.7,0.5-1.2,0.3-2.1,0.1
							c-1.9-0.5-3.9-1.3-6-0.3c-0.9,0.4-1.7,0.4-2.7,0.2c-1.5-0.4-3.1-0.5-4.7-0.7c-0.4,0-1,0.1-1.2,0.4c-0.6,0.8-1.4,0.6-2.2,0.4
							c-3.2-1-6.4-2.1-8.8-4.5c-0.7-0.7-1.2-1.3-0.9-2.4c0.3-1.1,0.2-2.4,0.1-3.5c-0.3-2.6,0.3-4.8,2.5-6.3c1.5-1,3-2.1,4.6-3.1
							c0.6-0.4,1.3-0.8,2-0.8c2.2,0,3.9-1.3,5.6-2.3c1.1-0.6,2.4-0.9,3.7-1.3c0.4-0.2,1-0.3,1.3-0.6c1.5-2.3,3.7-1.8,5.8-1.5
							c1.9,0.2,3.1-0.9,2.7-2.8c-0.1-0.5-0.3-0.9-0.4-1.4c-0.1-0.5-0.1-0.8,0.7-0.9c0.6-0.1,0.8-1.8,0.1-2.4
							c-1.3-1.1-1.4-2.2-0.9-3.8c0.2-0.5-0.6-1.4-0.6-2c0.1-1.1-0.3-1.5-1.3-1.5c-0.1,0-0.4-0.5-0.3-0.6c0.8-1.6-0.2-3-0.6-4.4
							c-0.9-2.7-2.3-5.3-2.4-8.2c0-0.4-0.4-0.7-0.6-1c-0.3-0.8-0.6-1.6-0.6-2.5c0-1.1,0-2-0.7-3c-0.2-0.3,0.2-0.9,0.3-1.4l0,0
							c1,0,1.6,0.2,1.7,1.5c0.1,1.4,0.6,2.8,0.9,4.2c0,0.1,0,0.2,0,0.2c2.5,1.2,2.1,3.8,2.7,5.8c0.7,2.4,1.2,4.9,1.8,7.3
							c0.2,1,0.4,2,1.4,2.6c0.3,0.2,0.6,0.6,0.6,0.9c0.2,1.8,0.2,3.6,0.4,5.5c0.2,2.7,0.2,5.4,0.7,8c0.8,4.2,0.5,8.4,0.8,12.5
							c0.1,0.9,0.2,1.8,0.4,2.6c0.6,2.4,0.4,4.9,0.3,7.3c0,2,0.1,4,0.3,5.9c0.2,2,0.8,3.9,1,5.8c0.2,1.5-0.2,3.1,0.3,4.6
							c1.3,4.1,1.7,8.4,2.4,12.6c0.2,1.2,0.4,2.3,0.6,3.5c0.3,1.8,0.8,3.6,1.9,5.1c0.8,1.1,1,2.4,1.5,3.6c1.5,3.9,0.6,7.7,0.4,11.5
							c-0.2,2.6-0.4,5.2-0.6,7.8c0,0.6-0.2,1.3-0.2,1.9c-0.1,0.7-0.7,1.6,0.4,2.1c0.1,0,0,0.4,0,0.6c-0.2,0.9-0.4,1.8-0.6,2.8
							c-0.2,1-0.4,1.8-1.6,2.2c-1.2,0.4-1.4,1.5-1.7,2.7c-0.6,2.4-1.4,4.7-2.1,7C436,493.6,435.8,493.4,435.5,493.2z"/>
						<path d="M362.2,297.9c-0.9,2.1-0.1,3.8,1.4,5.3c0.4,0.4,0.6,1.1,0.7,1.6c0.1,1.5,0.2,3,0.1,4.5c0,0.8-0.4,1.7-0.6,2.5
							c-0.2,0.6-0.4,1.2-0.6,1.8c-0.2,0.6-0.4,1.2-0.7,1.6c-1.1,1.6-2.4,3.1-0.9,5.2c0.6,0.8,0.1,1.8-0.9,1.7
							c-1.4-0.2-2.2,0.6-3.1,1.4c-1.3,1.2-2.8,0.8-4.1-0.4c-2-1.8-2-4.5-3.4-6.6c-0.4-0.6-0.2-1.5-1.3-0.9c-0.1-0.3-0.4-0.7-0.3-0.7
							c1.1-1.2,0.2-2.8,1.1-4.2c0.5-0.7-0.2-2.1-0.4-3.2c-0.1-0.6-0.2-1.1-0.1-1.7c0.1-0.3,0.6-0.5,1-0.6c0.1,0,0.3,0.2,0.5,0.4
							c0-0.2,0.1-0.6,0-0.7c-1.1-1-1.1-2-0.2-3.1c0.1-0.1,0.1-0.3,0.1-0.5c-0.4-2.2,0.5-3.2,2.7-3c0.2,0,0.7-0.5,0.7-0.8
							c0-0.2-0.4-0.6-0.6-0.8c-0.2-0.2-0.6-0.3-0.8-0.5c-0.7-1.1-1.1-0.5-1.5,0.3c-0.3,0.6-0.7,1.1-1.2,1.8
							c-0.2-0.4-0.4-0.5-0.4-0.6c1.3-2.5,1.2-2.7-1.6-3.2c-1.2-0.2-2.4-0.4-3.6-0.6c-0.6-0.1-0.9,0.3-0.8,0.9
							c0.1,0.3,0.2,0.6,0.3,0.9c0.4,1.3,1.2,2.6,1,3.8c-0.2,1.4,0.2,2.7,0.1,4c-0.4,2.9-0.8,5.8-1.5,8.6c-0.4,1.8-1,3.4,0.7,4.8
							c0.4,0.4,0.4,1.3-0.4,1.2c-1.1-0.1-1,0.6-1.3,1.3c-0.6,1.5-0.9,1.5-2.4,0.3c-0.1,0.1-0.2,0.2-0.2,0.4c0,1,0.7,2.2-0.5,2.8
							c-1.5,0.8-2.8,2.3-4.8,1.3c-0.6-0.3-1.5-0.3-2-0.6c-1.1-0.7-2.5-1.3-3.2-2.4c-1.7-2.9-2.9-6-3.6-9.3c-0.2-1-0.1-1.9,0.5-2.7
							c1-1.3,1.2-2.7,0.7-4.3c-0.2-0.7,0-1.6-0.1-2.3c-0.2-1.1-0.5-2.1-0.6-3.2c-0.1-0.7-0.5-1.8,1-1.1c0.1,0,0.4-0.1,0.5-0.3
							c0.2-0.5,0.5-1,0.6-1.6c0.3-1.1-0.2-1.8-1.4-1.7c-1.7,0.1-3.6,0.1-5.1,0.7c-0.8,0.4-1.5,1-2.5,0.7c-0.1,0.3-0.2,0.6-0.1,0.8
							c0.4,0.8,1,1.6,1.4,2.4c0.4,0.6,0.7,1.3,0.9,1.9c0.1,0.3,0,0.7,0,1.1c-0.4,0-0.7,0-1.1-0.1c-0.3-0.1-0.5-0.4-0.8-0.5
							c-0.3-0.1-0.6,0-0.9,0c0.2,0.2,0.4,0.5,0.6,0.7c0.1,0.1,0.1,0.3,0.1,0.4c-0.8,1.7,0.6,3.6-0.6,5.3c-0.2,0.3,0,0.8,0,1.2
							c-0.2,1.5,0.4,3-0.4,4.6c-0.3,0.5,0.1,1.4,0.2,2c0.1,0.8,0.4,1.5,0.5,2.3c0,0.1-0.2,0.4-0.4,0.5c-1,0.4-1.1,0.4-0.6,1.3
							c0.6,1.2,0.4,1.8-0.9,2c-0.5,0.1-0.9,0.4-1.3,0.6c-0.8,0.3-1.3,0.7-0.9,1.8c0.2,0.4,0,0.8-0.8,0.6c-1.3-0.3-2.3-0.7-2.8-2.1
							c-0.3-0.9-1-1.3-2.1-0.7c-1.5,0.8-1.6,0.7-1.9-0.9c-0.1-0.3-0.1-0.7-0.3-0.9c-1.3-1.5-1.1-3.4-1.4-5.2c-0.2-1.4-0.8-2.7-1.3-4
							c-0.6-1.3-0.5-2.2,0.3-3.5c0.1-0.1,0-0.6-0.1-0.7c-0.8-0.3-1-0.9-1-1.7c0.1-1.1,0.8-2.3-0.2-3.4c-0.1-0.1,0.1-0.4,0.2-0.6
							c0.8-1.5,0.8-1.4-0.6-2.4c-0.3-0.2-0.7-0.8-0.6-1c0.1-0.5,0.3-1.5,1.2-0.6c0.1,0.1,0.3,0,0.4,0c0.1-1.5,1.2-1.2,2.2-1.5
							c0.4-0.1,0.7-0.8,1.1-1.2c0.4-0.4,0.7-0.9,1.1-1.2c0.2-0.1,0.6,0,0.9,0.1c-0.1,0.3-0.1,0.6-0.3,0.7c-0.6,0.6-0.5,0.9,0.3,1.1
							c2.5,0.3,5-0.3,7.4-0.8c1.8-0.4,3.7-0.9,5.5-1.4c3.6-1,7.2-0.7,10.8-0.6c0.3,0,0.7,0.1,0.9,0c1.4-1.2,2.8-0.6,4.3-0.1
							c0.8,0.3,1.8,0.4,2.6,0.3c2.4-0.4,4.7,0,7.1,0.4c2.9,0.5,5.8,0.7,8.8,1c0.7,0.1,1.3,0.4,1.9,0.7c0.7,0.3,1.3,1.1,2.1,0.1
							c0,0,0.6,0.3,0.5,0.4C360.8,296.6,361.5,297.2,362.2,297.9L362.2,297.9z M340.8,296.6c0.4-0.5,0.7-0.7,0.7-0.9
							c0.1-0.8-0.6-1.8-1.2-1.8c-0.3,0-0.8,0.6-0.8,0.6C339.8,295.1,340.2,295.7,340.8,296.6z M359.9,308.7c0.2,0,0.4-0.1,0.6-0.1
							c-0.3-1.2-0.7-2.4-1.1-3.6c-0.1-0.2-0.3-0.3-0.4-0.5c-0.1,0.2-0.2,0.4-0.2,0.6C359.2,306.4,359.6,307.5,359.9,308.7z"/>
						<path d="M327.1,539.3c0.2-0.2,0.3-0.3,0.5-0.5c0.2,0.8,0.3,1.7,0.6,2.5c0.5,1.3,0.9,2.7,1.6,4c0.9,1.6,0.8,2.4-0.9,3.1
							c-0.8,0.3-1.7,0.5-1.7,1.7c-0.1,0.8-0.8,0.5-1.1,0.2c-1.4-1.2-2.8-0.9-4.5-0.5c-3.8,0.9-7.7,1.6-11.5,2.4
							c-0.9,0.2-1.8,0.6-2.8,0.7c-1.5,0.1-3,0.2-4.5,0.1c-1.3-0.1-2.5-0.5-3.8-0.6c-3.4-0.2-6.8-0.2-10.3-0.3
							c-0.5,0-1.1-0.2-1.6-0.3c-1.6-0.2-3.3-0.4-4.9-0.7c-2-0.4-4-0.8-6-1.5c-1.1-0.4-2-0.4-3,0.1c-0.7,0.3-1.4,0.8-2.1,1.1
							c-1.2,0.6-2.4,1-3.5-0.3c-0.3-0.3-0.8-0.5-1.3-0.6c-2.9-0.7-5.7-1.3-8.6-2c-2.9-0.7-5.7-1.3-8.1-3.3c-1.1-0.9-2.6-1.1-3.9-1.7
							c-0.9-0.4-1.7-0.9-2.6-1.2c-1.3-0.5-2.5-1.1-3.8-1.1c-1.7,0-3.2-0.4-4.8-1c-1.7-0.7-3.2-1.4-3.9-3.2c-0.5-1.2-1.4-1.7-2.7-1.6
							c-1.1,0.1-1.9-0.2-1.9-1.5c-0.1-0.5-0.3-1-0.4-1.6c0-1.1-0.1-2.2-0.1-3.3c0-0.2,0.3-0.4,0.4-0.5c0.2,0.1,0.4,0.3,0.5,0.4
							c0.3,1.1,0.4,2.2,0.8,3.2c0.4,1.3,0.8,1.4,2.1,1.2c0.4-0.1,1.1-0.2,1.2,0c1.8,2.4,4.6,3.1,6.9,4.6c0.3,0.2,1.1,0.3,1.2,0.1
							c0.5-0.8,0.9-0.5,1.3,0c1.2,1.7,2.9,2.6,4.8,3c0.1-1.9,0.1-1.9,1.4-3.1c-0.7,2.1,0.6,3.1,1.8,3.9c1,0.6,2.1,1.2,3.3,1.4
							c3.4,0.6,6.7,1.6,9.9,2.8c1.5,0.5,3.1,0.6,4.7,0.8c1.7,0.1,3.3,0.1,5,0.1c2.1,0,4.1,0.1,6.2,0c0.6,0,1.2-0.5,2-0.8
							c-0.9-0.7-2.2-0.4-2.2-1.8c1.2,0.1,2.3,0.3,3.5,0.4c-0.4-0.9-0.6-1.9-1.2-2.6c-0.9-1-0.8-2-0.3-3.1l0.1-0.1
							c0.7,0.2,1.4,0.3,2,0.7c1.2,0.7,1.3-0.4,1.8-0.9c0.7-0.8,0.1-1-0.5-1.4c-0.4-0.3-0.6-0.8-0.9-1.2c0.5,0.1,1,0.2,1.5,0.4
							c0.4,0.2,0.8,0.5,1.2,0.7c1.3,0.6,2.5,1.3,3.9,1.8c1,0.3,0.7-0.5,0.5-1c0.2-0.2,0.4-0.4,0.7-0.6c0.9,1.2,1.6,4.1,1.4,6.4
							c-0.6-0.8-1.1-1.3-1.4-2c-0.9-2-1.6-2.3-4-1.9c-0.2,0-0.5-0.1-0.7-0.1c-0.3,0-0.7,0-1,0c0.1,0.4,0.2,0.9,0.4,1
							c0.7,0.4,1.5,0.8,2.4,1c1.2,0.2,1.7,0.7,1.2,1.6c-0.8,1.2-0.4,2.2,0.1,3.3c-0.9-0.3-1.6-0.8-2.4-1.1c-0.4-0.2-1.2-0.4-1.3-0.2
							c-1,1.2-2.5,0.8-3.6,1.4c-0.2,0.1-0.3,0.3-0.5,0.4c0.2,0.2,0.5,0.3,0.7,0.5c-0.4,0.1-0.7,0.2-1.1,0.2c-0.5,0-1,0-1.4,0.1
							c-0.3,0-0.5,0.3-0.7,0.5c0.2,0.2,0.4,0.6,0.6,0.6c1.6,0.3,3.2,0.5,4.7,0.7c2.4,0.3,2.4,0.3,3.5-1.7c0.6,2.2,0.8,2.4,3.2,2.6
							c3.6,0.2,7.2,0.4,10.7,0.5c1.5,0,3-0.2,4.5-0.4c5.2-0.5,10.5-1,15.7-1.6c0.8-0.1,1.6-0.3,1-1.5c-0.3-0.6-0.3-1.4-0.4-2.1
							c-0.1-0.4-0.1-1.2,0.1-1.3c0.8-0.4,0.7,0.5,1,0.9c0.1,0.1,0.1,0.4,0.2,0.4c0.6,0.1,1.2,0.1,1.7,0.2c-0.1-0.4-0.3-0.8-0.5-1.2
							c-0.2-0.3-0.5-0.4-0.6-0.7c-0.2-0.3-0.2-0.7-0.3-1c0.3,0,0.6-0.1,0.9-0.1c0.4,0,2.6-0.4,3-0.3c1,0.2,1.1-0.3,0.9-1.1
							C327.3,540.4,327.2,539.9,327.1,539.3z M274.1,548.1c0-0.1-0.1-0.3-0.1-0.4c-2.6,0.3-5.1,0.5-7.9,0.8c1,0.3,2.1,0.4,2.5,0.9
							c0.8,1.1,1.6,0.8,2.5,0.4C272.1,549.3,273.1,548.7,274.1,548.1z M325.4,544.5c0.8,0.6,1.3,1,1.8,1.3c0.3,0.2,0.8,0.2,1,0.1
							c0.2-0.1,0.4-0.8,0.2-1c-0.2-0.4-0.7-0.9-1.1-0.9C326.9,543.8,326.3,544.2,325.4,544.5z"/>
						<path d="M425.4,522.9c0.1-0.4,0.2-0.7,0.3-1.1c-0.4,0-0.7-0.1-1,0c-0.4,0.1-0.6,0.5-1,0.7c-2.2,1.4-4,3.3-6.4,4.5
							c-1.3,0.6-2.5,1.6-3.2,3.1c-0.5,0.9-1.3,1.5-2.4,1.8c-1.3,0.5-2.6,1.3-3.8,2c-0.9,0.5-1.6,1-2.3-0.3c-0.5-0.8-2.9-0.1-3.2,0.8
							c0,0.1,0,0.2,0,0.2c0.2,0.4,1.2,0.8,0.4,1.3c-1,0.7-2.2,1.3-3.4,1.7c-0.7,0.2-1.5,0.1-2.1,0.9c-0.2,0.2-0.8,0.3-1,0.2
							c-1.3-0.6-2,0-2.8,1c-1.5,1.7-3.4,2.6-5.7,2.5c-1-0.1-2.1,0.1-3,0.5c-2.4,1-5,0.8-7.5,1.4c-0.9,0.2-1.8,0.6-2.7,0.9
							c-0.3,0.1-0.6,0.4-0.9,0.4c-1.7-0.2-3.1,0.1-4.5,1.2c-0.1,0.1-0.6,0.1-0.7,0c-0.6-1.7-1.6-0.3-2.5-0.4c-1.5-0.2-2.9,0.7-4.5,0
							c-0.9-0.4-2.2,0-3.3,0.3c-1.5,0.4-3.1,0.5-4.6,0.8c-2,0.5-3.9,0.1-5.9-0.1c-2.9-0.3-5.8-0.5-8.7-0.7c-0.3,0-0.7,0-0.9-0.2
							c-0.3-0.2-0.5-0.5-0.6-0.9c0-0.1,0.4-0.6,0.6-0.6c1.7,0.2,1.9-0.7,1.5-2.1c-0.1-0.2,0.2-0.5,0.3-0.8c0.4,0.1,1,0.2,1,0.4
							c0.5,2.5,2.4,2.7,4.4,2.7c4.2-0.1,8.5-0.2,12.7-0.5c1.8-0.2,3.5-1,5.2-1.6c1.2-0.4,2.3-1.1,3.6,0c0.3,0.3,1.1,0.1,1.6,0
							c5.3-1.5,10.6-3,15.8-4.6c2.3-0.7,4.5-1.5,7-1.1c0.7,0.1,1.4-0.1,2.1-0.4c1.8-0.7,3.5-1.5,5.3-2.2c0.7-0.3,1.4-0.6,1.4-1.4
							c0.1-1.1,0.8-1.4,1.7-1.8c1.1-0.5,2-1.7,3.2-1.9c1.3-0.2,2.4-0.7,3.5-1.3c1.4-0.8,2.9-1.4,4.5-1.2c0.9,0.1,1.3-0.2,1.8-1.1
							c0.4-1,1.1-2.2,2.7-1.9c0.2,0,0.7-0.3,0.7-0.4c-0.3-2.2,1.6-3.4,2.6-4.9c2-3,4.5-5.8,6.8-8.6c1-1.2,2.1-2.3,4-2.3
							c-1,1-2.1,2-3.3,3.1c1.1,0.3,1.6-0.1,2.2-0.5c0.5-0.4,1.2-0.4,1.9-0.6c0,0.6,0.1,1.2,0.1,1.8c0,0.2,0,0.5-0.1,1
							c1.5-0.9,2.1-2.4,3.4-3.5c-0.1,0.5,0,1.1-0.3,1.4c-1.5,1.9-2.5,4-4.5,5.5c-1.7,1.3-3.1,2.9-3.6,5.2c-0.2,0.8-0.5,1.7-1.5,2
							L425.4,522.9z M426.6,518.5c1.5-1.5,2.8-2.7,4-4.1c0.2-0.2,0-0.8,0-1.3c-0.4,0.1-0.8,0-1,0.2c-0.7,0.6-1.3,1.4-2.1,1.9
							C426.4,516,426.3,516.9,426.6,518.5z M425.4,517.5c-2.4,1.7-4.7,2.9-6,5.3C421.5,521.4,424.5,521,425.4,517.5z M426.5,514.4
							c-0.2-0.4-0.2-0.6-0.3-0.7c-0.1-0.1-0.4-0.1-0.4,0c-0.4,0.5-0.9,1.1-1.3,1.7c-0.1,0.1,0,0.3,0.1,0.4c0.1,0.1,0.4,0.2,0.4,0.1
							C425.6,515.4,426.1,514.9,426.5,514.4z"/>
						<path d="M362.1,297.8c0-0.6,0-1.1-0.1-1.7c-0.3-1.2,0.2-2.2,0.9-3.1c1.2-1.5,2.2-3,2.9-4.9c0.5-1.3,1.9-2.3,2.9-3.5
							c0.2-0.2,0.4-0.8,0.3-0.9c-1.3-1.1-0.1-1.5,0.5-1.9c1-0.7,2-1.3,3-1.9c1-0.6,2.1-1.2,2.2-2.6c0-0.4,0.6-0.7,0.9-1.1
							c0.2-0.2,0.4-0.3,0.5-0.5c0.3-1.4,0.3-1.4,1.5-1.8c1.2-0.4,2-0.9,2.8-2c1.5-1.9,3.8-1.9,5.2,0.1c2.4,3.2,4.7,6.4,6.8,9.7
							c2.6,3.9,5.1,7.9,7.5,11.9c1,1.6,2,3.3,1.9,5.3c0,0.4,0.2,0.8,0.4,1.1c1.8,4.4,3.6,8.7,5.3,13.1c0.8,2,1.3,4.1,2,6.1
							c0.1,0.4,0.4,0.7,0.5,1c0.5,1.1,1.1,2.1,1.5,3.2c0.5,1.3,0.9,2.7,1.3,4c0.9,2.7,1.9,5.4,2.8,8.1c0.2,0.7,0.9,1.7-0.1,2.1
							c-1.2,0.5-1-0.8-1.2-1.5c-0.7-1.8-1.5-3.7-2.2-5.5c-0.1-0.1-0.1-0.3-0.2-0.4c-2.4-1.8-2.9-4.4-3.2-7.1c-0.1-0.5-0.1-1-0.3-1.4
							c-1.1-1.7-1.9-3.6-2.5-5.6c-0.3-1.2-0.8-2.4-1.2-3.6c-0.4-1.4-0.7-2.8-1-4.1c-0.3-1.2-0.8-2.4-1.1-3.6
							c-0.1-0.4-0.1-0.9-0.3-1.1c-2.1-2.5-2.4-5.8-4-8.6c-1.5-2.8-2.8-5.7-4.4-8.5c-0.9-1.6-2.3-3-3.4-4.6c-2.1-2.9-4.1-5.8-6.1-8.7
							c-0.8-1.1-1.2-1.2-2.3-0.4c-1.7,1.2-3,2.6-2,5.1c-2.6-1.2-2.7-1.1-4.6,0.8c-1.8,1.8-3.7,3.5-5.1,5.6c-0.9,1.4-2,2.8-2.5,4.5
							c-0.3,0.9-1.4,1.7-2.2,2.4c-0.6,0.6-1.1,1.1-1.3,2.1c-0.3,1.3-1.2,2.4-1.3,3.9C363.2,297.6,362.5,297.7,362.1,297.8
							C362.2,297.9,362.1,297.8,362.1,297.8z"/>
						<path d="M307.6,369.1c-2.9-0.1-5.9-2.5-6.2-5.5c-0.2-1.9,0.1-4,0.7-5.8c1.2-3.3,6-4.4,8.9-2.4c1.8,1.3,2.5,2.2,3.1,4.3
							c0,0.2,0.1,0.3,0.1,0.5c-0.4,2.1-0.7,4.3-1.3,6.3C312.4,368.3,310.4,369.2,307.6,369.1z"/>
						<path d="M362.2,361.8c-0.2,2.8-0.6,4.7-2.8,5.8c-0.5,0.2-0.9,0.6-1.4,1c-1.8,1.4-3.6,1.6-5.1,0.1c-1.3-1.2-2.4-2.7-3.5-4.2
							c-0.7-1.1-0.8-2.4,0.1-3.6c0.7-0.9,1.2-1.9,1.8-2.8c0.3-0.4,0.7-0.9,1.2-1.1c2-0.7,4.1-1.2,6.3-0.5c0.5,0.2,1.1,0.5,1.4,0.9
							C361,358.9,361.7,360.6,362.2,361.8z"/>
						<path d="M262.1,291.4c-0.4,0.8-0.6,1.9-1.2,2.2c-2,1.1-2.7,3.1-3.8,4.8c-0.5,0.7-0.7,1.6-1.8,1.8c-0.8,0.1-0.6,1-0.3,1.4
							c1.2,1.5,0.4,2.2-0.7,3.2c-0.9,0.8-1.5,2-2.3,3c-0.5,0.6-0.8,1.5-1.9,0.8c-0.1,0-0.4,0.2-0.5,0.3c-0.2,0.5-0.4,1.1-0.7,1.7
							c-1.1-3.1-0.7-4.6,1.7-6c0.7-0.4,1-0.9,1.4-1.5c0.8-1.2,1.5-2.4,2-3.7c0.6-1.3,1.5-2.5,2.2-3.7c0.8-1.3,1.9-2.5,2.4-3.8
							c1.1-3.3,4.5-4.9,5.8-8c1.6-0.5,2-2.3,3.4-3c0.4-0.2,0.9-0.4,1.2-0.2c0.6,0.3,0.9,0.9,0.5,1.6c-0.6,1-1.2,1.9-1.7,2.9
							c-0.4,0.8-1,1.7-1.2,2.6c-0.1,0.9-0.9,0.2-1,0.5c-0.1,0.5,0.1,1.1,0,1.7c-0.1,0.5-0.5,1-0.8,1.4
							C263.5,293.4,263.3,293.4,262.1,291.4z"/>
						<path d="M272.2,276.8c0.2,1.3,0,2.4,0.4,2.7c0.9,0.5,1.5-0.5,2.1-1c1.4-1.2,2-2.9,2.7-4.5c0.7-1.7,3.6-3.2,5.3-2.7
							c0.3,0.1,0.6,0.5,0.7,0.8c0.9,1.8,2.5,3.1,3.7,4.6c1.8,2.3,3.4,4.8,4.1,7.7c0.1,0.6,0,1.2,0,1.8c-1.2-0.6-2.3-1.2-3.4-1.7
							c-0.1-0.1-0.3-0.2-0.3-0.3c-0.3-2-2.2-3.3-2.1-5.5c0-0.6-0.3-1.4-0.7-2c-0.6-0.9-1.4-1.7-2.2-2.5c-0.5-0.5-1.1-0.7-1.6,0
							c-0.2,0.3-0.5,0.7,0.2,0.7c1.6,0.1,0.4,1,0.2,1.1c-0.9,0.6-1.8,1-2.8,1.6c-1,0.6-2,1.2-3,1.9c-0.6,0.4-0.6,0.8,0.2,1.1
							c0.6,0.2,0.3,0.7-0.2,0.7c-1.6,0-2.9,0.6-4,1.8c-0.1,0.2-0.7,0.2-0.8,0c-0.2-0.2-0.2-0.7-0.1-0.8c0.8-1,1.3-1.9,0.3-3.2
							C270.8,279,271.6,277.9,272.2,276.8z"/>
						<path d="M336.7,368.9c-0.4-0.2-1.2-0.4-1.8-0.9c-0.9-0.6-1.6-0.7-2.6,0.1c-2.3,1.7-3.4,1.7-5.8,0c-0.8-0.6-1.7-1.2-2.3-2
							c-0.2-0.3-0.2-1.2,0.1-1.4c0.3-0.3,1.1-0.2,1.5,0c0.5,0.3,0.9,0.9,1.4,1.3c1.7,1.5,3.4,1.2,4.5-0.8c0-0.1,0.1-0.1,0.1-0.2
							c1-2,1.4-2,2.6-0.2c1.2,1.8,3.8,1.6,4.9-0.2c0.2-0.3,0.2-0.8,0.4-1.1c0.2-0.3,0.8-0.9,0.9-0.8c0.4,0.2,0.9,0.6,1.1,1.1
							c0.2,0.4,0,0.9-0.1,1.4C341.1,366.7,338.5,368.9,336.7,368.9z"/>
						<path d="M365.6,409.3c-0.6-2.5-1.3-4.9-1.9-7.4c-0.1-0.5-0.4-0.9-0.4-1.4c0-0.6,0.5-0.9,0.9-0.6c0.5,0.4,1.1,1,1.2,1.6
							c0.7,2.4,1.2,4.8,1.8,7.2c0.4,1.5-0.1,2.9-1,4c-1.1,1.3-2.3,2.5-3.7,3.3c-1.9,1.1-3.4,0.3-3.9-1.9c-0.4-1.8-0.7-3.6-0.9-5.4
							c-0.1-0.7,0.2-1.4,0.5-2c0.1-0.3,0.6-0.4,1-0.4c0.1,0,0.4,0.5,0.4,0.8c0.1,1.6,0,3.2,0.2,4.7c0.1,0.9,0.5,1.8,0.8,2.7
							c1-0.3,2.2-0.3,2.8-1C364.4,412.4,365.9,411.3,365.6,409.3z"/>
						<path d="M277.9,406.2c0.2-1.3,0.2-2.1,0.4-2.8c0.1-0.3,0.6-0.6,0.9-0.6c0.3,0,0.6,0.5,0.7,0.8c0,0.6-0.1,1.3-0.2,1.9
							c-0.3,1.9,0.5,3.5,1.5,4.9c0.7,1,1.3,0.9,2-0.1c1-1.6,1.7-3.3,1.7-5.2c0-0.5,0-1,0-1.4c0-0.8-0.1-1.9,0.9-1.9
							c1.1-0.1,1.2,0.9,1.2,1.9c0,0.4,0.4,0.8,0.5,1.3c0.1,0.2,0.1,0.7-0.1,0.8c-1.7,1-1.4,3.1-2.6,4.4c-0.3,0.3-0.4,0.9-0.7,1.2
							c-1.4,1.9-3.8,1.8-4.8-0.4C278.7,409.4,278.3,407.6,277.9,406.2z"/>
						<path d="M413.1,253.1c-0.7-0.4-1.3-0.9-2-1.2c-0.4-0.2-1-0.3-1.5-0.4c0.1,0.6,0.1,1.2,0.3,1.7c0.4,0.8,0.9,1.5,1.3,2.3
							c0.1,0.2,0,0.5-0.1,0.6c-0.1,0.1-0.5,0.1-0.6-0.1c-0.8-0.7-1.5-1.4-2.3-2c-0.5-0.4-1.2,0.1-1,0.7c0.1,0.6,0.4,1.2,0.7,1.7
							c0.4,0.9,1,1.8,1.4,2.7c0.1,0.3-0.2,0.8-0.4,1.2c-0.3-0.1-0.9-0.2-1-0.4c-0.9-1.8-1.9-3.5-2.6-5.3c-0.5-1.1,0.3-2.2,1.8-2.2
							c1.1,0,1.2-0.4,1.2-1.2c0-0.4,0.1-0.8,0.3-1.2c0.4-0.9,1.4-1.3,2.1-0.6c1,1,1.9,2.1,2.8,3.1
							C413.3,252.8,413.2,253,413.1,253.1z"/>
						<path d="M427,236.9c0,1,0,1.9,0,2.7c0,0.5-0.2,1.1-0.4,1.6c-0.1,0.1-0.4,0.2-0.6,0.2c-0.1,0-0.2-0.2-0.2-0.4
							c0-1.7,0.1-3.3,0.2-5c0-0.4,0.3-0.9,0.5-1.3c0.4,0.2,0.8,0.3,1.2,0.6c0.3,0.2,0.5,0.6,0.8,0.8c0.3,0.2,0.9,0.4,1.1,0.2
							c0.3-0.2,0.7-0.8,0.6-1.1c-0.4-1.7-0.9-3.4-1.5-5c-0.3-0.7-0.9-1.2-1.7-0.4c-0.2,0.2-0.5,0.2-0.7,0.3c0-0.3-0.1-0.6,0-0.9
							c0.4-1.3,1.2-1.6,2.3-0.8c1.1,0.7,1.9,1.7,2.2,3c0.3,1.2,0.6,2.3,0.9,3.5c0.4,1.7-0.9,3-2.7,2.6
							C428.2,237.5,427.7,237.2,427,236.9z"/>
						<path d="M414,248.3c0-1.6,1-2.9,1.9-2.8c0.8,0.1,1.8,1.6,1.8,2.8c0,0.7,0.2,1.4,0.2,2.1c0,0.5,0,1.3-0.3,1.4
							c-0.5,0.2-1.3,0.3-1.7,0C414.4,251,414.1,249.6,414,248.3z"/>
						<path d="M804.8,478.8c0.2,0.4,0.4,0.7,0.4,1c0,4.9,0,9.7,0,14.6c0,0.2-0.2,0.4-0.4,0.6c-0.2-0.3-0.4-0.5-0.4-0.6
							c0-4.9,0-9.9,0-14.8C804.3,479.4,804.5,479.2,804.8,478.8z"/>
						<path d="M420.7,348.7c0.4,0.2,0.8,0.4,1.2,0.7c0.3,0.2,0.7,0.6,0.7,0.6c-1.1,1.6,0.6,2.5,0.9,3.8c0.1,0.4-0.8,1.1-1.3,1.6l0,0
							c-0.9-0.1-1.6-0.3-1.7-1.4c-0.1-0.7-0.5-1.3-0.7-1.9C420.1,351,420.4,349.9,420.7,348.7z"/>
						<path d="M684.8,259.8c-0.2-0.2-0.9-0.4-1-0.8c-0.6-1.6-1.4-2.9-2.6-4.1c-0.1-0.1-0.1-0.3-0.1-0.4c0-0.2,0.1-0.4,0.3-0.6
							c0,0,0.3,0,0.4,0.1c0.7,1.2,2.1,1.3,3.2,1.9c0.8,0.5,1.5,1.4,2.1,2.3C687.4,258.7,686.1,259.8,684.8,259.8z"/>
						<path d="M423.3,243c-0.1,1-0.1,1.5-0.2,2c-0.2,1-0.8,1.6-1.7,1.8c-1,0.2-1.4-0.5-1.8-1.2c-1.1-1.9-0.9-3.8,0.5-5
							c0.8-0.7,1.6-0.7,2.2,0.2C422.8,241.6,423.1,242.6,423.3,243z M420.2,243.2c0,0.4,0,0.8,0.1,1c0.3,0.4,0.7,0.7,1.1,1.1
							c0.3-0.4,1-0.7,1-1.1c0-0.7-0.2-1.6-0.5-2.2c-0.3-0.6-0.9-0.5-1.3,0C420.4,242.3,420.4,242.8,420.2,243.2z"/>
						<path d="M804.8,131.1c0.5,1.8,0.6,11.1,0,13.7c-1-1.5-0.5-3-0.6-4.4c-0.1-1.6,0-3.2,0-4.8c0-1.5,0-3,0-4.5
							C804.4,131.1,804.6,131.1,804.8,131.1z"/>
						<path d="M420.7,348.7c-0.3,1.1-0.7,2.3-1,3.4c-0.1-0.1-0.3-0.2-0.3-0.3c-0.8-2.1-0.7-4.4-1.8-6.5c-0.1-0.3,0.3-0.8,0.5-1.2
							c0.4,0.2,0.8,0.4,1.1,0.7C420.4,345.8,420.4,347.3,420.7,348.7z"/>
						<path d="M435.5,493.2c0.2,0.2,0.5,0.4,0.7,0.6c-0.7,2.9-1.4,5.9-2,8.8c-0.2,0.9-0.3,1.8-0.6,3.3c-0.6-1.2-0.7-2.1-0.5-2.8
							c0.7-3.1,1.4-6.2,2.1-9.3C435.2,493.6,435.4,493.4,435.5,493.2z"/>
						<path d="M804.6,477.1c-0.5-2.9-0.4-5.8-0.2-8.7c0-0.2,0.2-0.3,0.4-0.5c0.1,0.1,0.2,0.2,0.3,0.3
							C805.4,469.2,805.2,475.9,804.6,477.1z"/>
						<path d="M804.9,147.9c0.2,3.1,0.5,6.1,0.1,9.6C804,155.3,804,149.9,804.9,147.9z"/>
						<path d="M804.4,54.3c0-3.3,0-6.5,0-9.8C805.5,46.1,805.5,52,804.4,54.3z"/>
						<path d="M804.7,499.7c0.7,1.8,0.7,6.9,0,8.6C804,506.5,804,501.4,804.7,499.7z"/>
						<path d="M209.1,496.9c-2-0.1-2.5-1.4-3.1-2.5c-0.4-0.7-0.6-1.6-0.7-2.4c0-0.2,0.3-0.5,0.5-0.7c0.2,0.2,0.4,0.4,0.6,0.6
							c0.5,0.9,1,1.8,1.5,2.7C208.2,495.3,208.6,496,209.1,496.9z"/>
						<path d="M804.7,449.3c-0.7-1.8-0.7-6.4,0-8.1C805.4,443,805.4,447.6,804.7,449.3z"/>
						<path d="M225.8,531.6c0.1,0.5,0.3,1,0.4,1.6c-1.1,0.3-1.9-0.1-2.4-1.2c-0.5-1.1-1.2-2.1-1.9-3.2l0.1-0.1c0.5,0,1,0,1.5,0
							C224.3,529.7,225,530.6,225.8,531.6z"/>
						<path d="M804.8,604.4c0.5,2.4,0.4,4.8,0.3,7.6C804.1,610.3,804,607,804.8,604.4z"/>
						<path d="M804.8,595.7c0.3,2.3,0.6,4.6-0.1,6.8C804.2,600.3,804.1,598,804.8,595.7z"/>
						<path d="M807.1,518.6c-0.3,0.2-0.7,0.3-1,0.5c-0.2-0.9-0.4-1.7-0.4-2.6c-0.1-2.3,0-4.6,0.2-7c0.3,1.1,0.7,2.2,0.5,3.4
							C806,515,806.4,516.9,807.1,518.6z"/>
						<path d="M805,339c0,2.2,0,4.5,0,6.7c-0.6-2.2-1.2-4.5-0.5-6.7C804.7,338.9,804.9,338.9,805,339z"/>
						<path d="M806.2,579.6c-0.7-2.2-0.7-7,0.2-9.1c0.8,1.7,0.2,3.2,0,4.6C806.1,576.6,806.2,578.1,806.2,579.6L806.2,579.6z"/>
						<path d="M296.7,294.4c-1.1-0.8-2.1-1.5-3-2.2c-0.2-0.1-0.4-0.4-0.3-0.6c0.1-0.3,0.3-0.7,0.5-0.7c0.5,0,1.1,0.1,1.5,0.4
							C296.3,292.1,296.8,293,296.7,294.4z"/>
						<path d="M410.1,572.2c-1.4-1.8-1-3.4-0.5-5.1c0-0.2,0.4-0.4,0.5-0.3c0.2,0,0.4,0.3,0.4,0.5
							C410.4,568.8,410.3,570.3,410.1,572.2z"/>
						<path d="M804.7,74.4c-0.7-1.7-0.5-3.5-0.2-5.3C805.5,70.9,805.2,72.6,804.7,74.4z"/>
						<path d="M425.6,523.1c-1.1,2-2.3,3.8-4.9,3.8l0,0c1.6-1.3,3.2-2.6,4.7-3.9L425.6,523.1z"/>
						<path d="M804.7,437.3c-0.5-1.6-0.6-3.2,0-5.3C805.4,434.1,805.3,435.7,804.7,437.3z"/>
						<path d="M804.3,161.4c0.5,0.5,0.7,0.5,0.7,0.6c0,1.5-0.1,3.1-0.1,4.6c0,0-0.2,0-0.2,0C803.8,165,804.4,163.4,804.3,161.4z"/>
						<path d="M804.7,62.4c0.7,1.6,0.5,3.1,0.3,4.9C804.1,66,804,65.1,804.7,62.4z"/>
						<path d="M805,451.7c0,1.4,0,2.9,0,4.5C804.1,454.8,804,454.1,805,451.7z"/>
						<path d="M316,362.1c-0.6-1.4-1.2-2.5-1.6-3.6c-0.1-0.2,0.1-0.4,0.1-0.7c0.3,0.1,0.7,0,0.8,0.2
							C316.1,359.2,316.7,360.4,316,362.1z"/>
						<path d="M222.1,503.1c-0.5-0.8-1-1.6-1.4-2.4c-0.2-0.3,0-0.7,0-1.1c0.4,0.2,1,0.2,1.2,0.5c0.4,0.9,0.6,1.8,0.9,2.8
							C222.5,502.9,222.3,503,222.1,503.1z"/>
						<path d="M199.9,438.5c-1.2-0.6-1.2-1.8-1.3-2.9c0-0.7,0.1-1.4,0.2-2.5C199.8,435.1,199.9,436.8,199.9,438.5L199.9,438.5z"/>
						<path d="M805,310.6c0,1.3,0,2.6,0,3.8c-1.1-1.2-0.8-2.5-0.6-3.8C804.7,310.6,804.8,310.6,805,310.6z"/>
						<path d="M805,56.7c0,1.3,0,2.5,0,3.8c-1-1.3-0.9-2.5-0.5-3.8C804.7,56.7,804.8,56.7,805,56.7z"/>
						<path d="M805.1,171.4c0,1.3,0,2.6,0,3.9c0,0.1-0.2,0.4-0.2,0.4c-0.2-0.1-0.5-0.2-0.5-0.3c-0.2-1.4-0.2-2.7,0-4.1
							C804.6,171.3,804.9,171.4,805.1,171.4z"/>
						<path d="M805.3,305.3c-0.1,0.6-0.1,0.9-0.2,1.2c0,0.1-0.2,0.3-0.3,0.3c-0.2,0-0.4-0.1-0.5-0.3c-0.1-0.2-0.3-0.4-0.3-0.6
							c0-0.5,0-1,0.1-1.5c0-0.1,0.5-0.3,0.6-0.3C804.9,304.6,805.1,305,805.3,305.3z"/>
						<path d="M807.1,452.4c-0.1,1.6-0.2,3.2-0.4,5.3C805.6,455.3,805.7,454.7,807.1,452.4C807.1,452.4,807.1,452.4,807.1,452.4z"/>
						<path d="M247.5,548.4c1.5,0.3,3.1,0.7,5.1,1.1c-2.1,0.5-3.7,0.3-5.2-0.6C247.4,548.8,247.5,548.6,247.5,548.4z"/>
						<path d="M221.9,528.8c-0.5-0.7-1-1.4-1.4-2.1c-0.5-0.8,0-1.3,0.5-1.8l0,0c0.2,0.4,0.5,0.7,0.5,1.1c0,0.8,0.3,1.1,1,1.3
							C222.3,527.8,222.2,528.2,221.9,528.8L221.9,528.8z"/>
						<path d="M420.7,526.8c-0.2,0.4-0.4,1-0.7,1.1c-0.8,0.3-1.6,0.4-2.6,0.7C418.5,527.1,418.6,527,420.7,526.8L420.7,526.8z"/>
						<path d="M804.2,38.3c0-0.6,0-0.9,0.1-1.1c0.1-0.2,0.3-0.4,0.5-0.7c0.1,0.2,0.3,0.5,0.4,0.7c0.1,0.2,0.1,0.5,0,0.7
							c-0.1,0.5-0.3,1-0.4,1.5C804.6,38.9,804.3,38.4,804.2,38.3z"/>
						<path d="M805.3,511.3c-0.1,0.7-0.1,1.1-0.2,1.5c0,0.2-0.3,0.3-0.5,0.4c0,0-0.2-0.2-0.3-0.3c-0.1-0.4-0.2-0.8-0.1-1.1
							c0.1-0.5,0.3-1,0.4-1.4C804.9,510.7,805.1,511.1,805.3,511.3z"/>
						<path d="M365.6,547.2c-0.5,0.8-0.8,1.4-1.3,2c-0.1,0.2-0.5,0.2-0.8,0.3c-0.1-0.3-0.3-0.6-0.3-0.8
							C363.6,547.7,364.5,547.4,365.6,547.2z"/>
						<path d="M287.7,534c0.5,0.2,1,0.5,1.5,0.7c1.2,0.6,0.8,1.3,0.1,2.1c-0.2,0.2-0.4,0.4-0.7,0.6c-0.8-0.6-1.6-1.2-2.5-1.8
							c0.1-0.1,0.1-0.1,0.2-0.2C287.9,535.3,287.9,535.3,287.7,534z"/>
						<path d="M222.5,527.3c0.2-0.3,0.4-0.7,0.7-0.9c0.2-0.2,0.6-0.2,0.8-0.3c0.1,0.3,0.4,0.7,0.3,1c-0.2,0.6-0.5,1.1-0.8,1.7
							c-0.5,0-1,0-1.5,0C222.2,528.2,222.3,527.8,222.5,527.3z"/>
						<path d="M279.1,538.4c-0.8-0.9-1.1-2-1-3.2c0-0.3,0.3-0.6,0.4-0.9c0.3,0.2,0.9,0.4,0.9,0.6C279.4,536,279.3,537.1,279.1,538.4
							L279.1,538.4z"/>
						<path d="M281.8,532.1c-0.9-0.2-1.5-0.3-2.1-0.5c-0.3-0.1-0.7-0.6-0.7-0.7c0.1-0.4,0.5-0.7,0.8-1.1c0.3,0.2,0.6,0.4,0.8,0.7
							C281,530.9,281.3,531.4,281.8,532.1z"/>
						<path d="M228.6,527.5c0.2,1.2,0.3,2.3,0.5,3.5c-0.2,0-0.4,0.1-0.5,0.1c-0.5-1.1-0.7-2.3-0.6-3.5
							C228.2,527.5,228.4,527.5,228.6,527.5z"/>
						<path d="M286.2,535.6c-1.6-0.3-2.7-1.4-3.5-2.8c1.5,0.5,2.7,1.4,3.6,2.6C286.3,535.4,286.3,535.5,286.2,535.6z"/>
						<path d="M304.4,545.8c0.6,0.4,1.2,0.9,1.9,1.3c-0.4-1.8-1.7-2.6-3.1-3.3c-0.2-0.1-0.6,0.5-1,0.7c-0.4,0.3-1.1,0.8-1.3,0.7
							c-0.5-0.3-0.7-0.9-1-1.4c-0.1-0.1,0.2-0.4,0.3-0.6c0.2,0.1,0.4,0.2,0.6,0.3c0.2,0.1,0.5,0.2,0.7,0.3c0-0.2,0.2-0.5,0.1-0.7
							c-0.2-0.4-0.4-0.8-0.7-1.2c-0.2-0.3-0.7-0.5-0.8-0.8c-0.1-0.4,0.1-0.8,0.2-1.3c0.3,0.1,0.8,0.2,0.9,0.4
							c2.1,2.6,5.1,3.9,8.3,4.9c-0.4-0.4-0.8-0.9-1.2-1.2c-0.9-0.6-0.5-1.4-0.3-2.1c0.3-1.1,1-0.3,1.5-0.5c0.1,0,0.3-0.1,0.7-0.4
							c-1.4-0.6-2.6-1.1-3.8-1.7c-1.2-0.5-2.3-1.1-3.4-1.7c-0.2-0.1-0.3-0.5-0.4-0.8c0.3-0.1,0.6-0.2,0.9-0.2c1.8,0.3,3.7,0.1,5,1.9
							c0,0.1,0.1,0.1,0.2,0.1c0.4,0,0.9-0.1,1.3-0.2c-0.1-0.4-0.1-1-0.4-1.2c-1.1-0.6-1.7-1.4-1.9-2.7c1.1,0.5,2.3,0.9,3.3,1.6
							c0.4,0.4,0.5,1.4,0.4,2.2c-0.1,0.9-0.3,1.6,0.1,2.7c0.5,1.3-0.1,2.9,0.6,4.4c0.3,0.7-0.5,1.1-1.2,1.2c-1,0.1-1.7,0.5-2.6,1
							C306.6,548.8,305.4,548.3,304.4,545.8z"/>
						<path d="M308.9,533.5c-1-0.4-2-0.7-3-1.2c-0.3-0.1-0.4-0.6-0.6-0.9c0.3-0.1,0.7-0.3,1-0.2c1,0.5,2,1.1,3,1.7
							C309.1,533.2,309,533.3,308.9,533.5z"/>
						<path d="M324.2,538.4c-0.8,0.2-1.7,0.5-2.7,0.8c0.1-0.7,0.1-1.6,0.4-1.8c1-0.6,1.8,0.2,2.4,0.9L324.2,538.4z"/>
					</g>
				</g>
			</g>
		</g>
	</g>
</g>
</svg>
